<svg xmlns="http://www.w3.org/2000/svg" viewBox="0 0 30 30"><path d="M4.984375 3.9863281 A 1.0001 1.0001 0 0 0 4 5L4 25 A 1.0001 1.0001 0 1 0 6 25L6 5 A 1.0001 1.0001 0 0 0 4.984375 3.9863281 z M 8.984375 3.9863281 A 1.0001 1.0001 0 0 0 8 5L8 25 A 1.0001 1.0001 0 1 0 10 25L10 5 A 1.0001 1.0001 0 0 0 8.984375 3.9863281 z M 24.984375 3.9863281 A 1.0001 1.0001 0 0 0 24 5L24 25 A 1.0001 1.0001 0 1 0 26 25L26 5 A 1.0001 1.0001 0 0 0 24.984375 3.9863281 z M 13 4C12.448 4 12 4.448 12 5L12 25C12 25.552 12.448 26 13 26L16 26C16.552 26 17 25.552 17 25L17 5C17 4.448 16.552 4 16 4L13 4 z M 20 4C19.448 4 19 4.448 19 5L19 25C19 25.552 19.448 26 20 26L21 26C21.552 26 22 25.552 22 25L22 5C22 4.448 21.552 4 21 4L20 4 z"/></svg>