<svg xmlns="http://www.w3.org/2000/svg" viewBox="0 0 30 30"><path d="M6 4C4.895 4 4 4.895 4 6L4 10L10 10L10 4L6 4 z M 12 4L12 10L18 10L18 4L12 4 z M 20 4L20 10L26 10L26 6C26 4.895 25.105 4 24 4L20 4 z M 4 12L4 18L10 18L10 12L4 12 z M 12 12L12 18L18 18L18 12L12 12 z M 20 12L20 16.6875C18.552252 17.379853 17.379853 18.552252 16.6875 20L12 20L12 26L16.6875 26C17.815618 28.358958 20.219783 30 23 30C26.854149 30 30 26.854149 30 23C30 20.219783 28.358958 17.815618 26 16.6875L26 12L20 12 z M 23 18C25.773268 18 28 20.226732 28 23C28 25.773268 25.773268 28 23 28C20.226732 28 18 25.773268 18 23C18 20.226732 20.226732 18 23 18 z M 22.984375 18.986328 A 1.0001 1.0001 0 0 0 22 20L22 22.585938L20.792969 23.792969 A 1.0001 1.0001 0 1 0 22.207031 25.207031L23.707031 23.707031 A 1.0001 1.0001 0 0 0 24 23L24 20 A 1.0001 1.0001 0 0 0 22.984375 18.986328 z M 4 20L4 24C4 25.105 4.895 26 6 26L10 26L10 20L4 20 z"/></svg>