<svg xmlns="http://www.w3.org/2000/svg" viewBox="0 0 30 30"><path d="M6.0683594 3.9589844C4.1903594 3.9589844 3.0097656 5.3662969 3.0097656 7.7792969C3.0097656 10.192297 4.1753594 11.636719 6.0683594 11.636719C7.9563594 11.636719 9.1289062 10.188156 9.1289062 7.7851562C9.1289062 5.3621563 7.9413594 3.9589844 6.0683594 3.9589844 z M 18.994141 3.9589844C17.116141 3.9589844 15.935547 5.3662969 15.935547 7.7792969C15.935547 10.192297 17.101141 11.636719 18.994141 11.636719C20.882141 11.636719 22.054688 10.188156 22.054688 7.7851562C22.054687 5.3621563 20.867141 3.9589844 18.994141 3.9589844 z M 12.220703 4.15625L10.369141 5.4179688L10.369141 7.0136719L12.125 5.8261719L12.220703 5.8261719L12.220703 11.439453L14.072266 11.439453L14.072266 4.15625L12.220703 4.15625 z M 25.148438 4.15625L23.296875 5.4179688L23.296875 7.0136719L25.052734 5.8261719L25.148438 5.8261719L25.148438 11.439453L27 11.439453L27 4.15625L25.148438 4.15625 z M 6.0683594 5.3828125C6.7753594 5.3828125 7.25 6.1792969 7.25 7.7792969C7.25 9.3892969 6.7753594 10.212891 6.0683594 10.212891C5.3613594 10.212891 4.8925781 9.3892969 4.8925781 7.7792969C4.8925781 6.1792969 5.3613594 5.3828125 6.0683594 5.3828125 z M 18.994141 5.3828125C19.701141 5.3828125 20.175781 6.1792969 20.175781 7.7792969C20.175781 9.3892969 19.701141 10.212891 18.994141 10.212891C18.287141 10.212891 17.818359 9.3892969 17.818359 7.7792969C17.818359 6.1792969 18.287141 5.3828125 18.994141 5.3828125 z M 11.626953 18.363281C9.7489531 18.363281 8.5664062 19.770594 8.5664062 22.183594C8.5664062 24.596594 9.7339531 26.040063 11.626953 26.039062C13.514953 26.039062 14.685547 24.592453 14.685547 22.189453C14.685547 19.766453 13.499953 18.363281 11.626953 18.363281 z M 18.994141 18.363281C17.116141 18.363281 15.935547 19.770594 15.935547 22.183594C15.935547 24.596594 17.101141 26.040063 18.994141 26.039062C20.882141 26.039062 22.054688 24.592453 22.054688 22.189453C22.054687 19.766453 20.867141 18.363281 18.994141 18.363281 z M 4.8515625 18.560547L3 19.822266L3 21.417969L4.7558594 20.230469L4.8515625 20.230469L4.8515625 25.84375L6.703125 25.84375L6.703125 18.560547L4.8515625 18.560547 z M 25.148438 18.560547L23.296875 19.822266L23.296875 21.417969L25.052734 20.230469L25.148438 20.230469L25.148438 25.84375L27 25.84375L27 18.560547L25.148438 18.560547 z M 11.626953 19.787109C12.333953 19.787109 12.806641 20.583594 12.806641 22.183594C12.806641 23.794594 12.332953 24.617188 11.626953 24.617188C10.919953 24.617188 10.449219 23.793594 10.449219 22.183594C10.449219 20.583594 10.919953 19.787109 11.626953 19.787109 z M 18.994141 19.787109C19.701141 19.787109 20.175781 20.583594 20.175781 22.183594C20.175781 23.794594 19.701141 24.617188 18.994141 24.617188C18.287141 24.617188 17.818359 23.793594 17.818359 22.183594C17.818359 20.583594 18.287141 19.787109 18.994141 19.787109 z"/></svg>