<svg xmlns="http://www.w3.org/2000/svg" viewBox="0 0 30 30">
<path d="M7 3C5.2931992 3 3.9482086 4.2333908 3.1640625 5.8769531C2.3799164 7.5205154 2 9.6677244 2 12.099609C2 14.347947 2.4696301 16.691856 3.4160156 18.576172C3.537219 18.817496 3.7534697 18.967802 3.8945312 19.195312C3.304804 19.911519 2.2734375 21.3125 2.2734375 21.3125 A 1.0002746 1.0002746 0 1 0 3.7265625 22.6875C3.7265625 22.6875 4.701189 21.36024 5.1542969 20.826172C5.9540213 21.523794 6.8883091 22 8 22C10.22983 22 12.177641 20.737057 13.833984 19.158203C13.854274 19.176353 13.858116 19.204886 13.878906 19.222656C14.429191 19.69311 15.178741 20 16 20C17.096706 20 18.017978 19.446127 18.6875 18.761719C19.357022 18.077311 19.842475 17.248041 20.246094 16.453125C20.312094 16.32315 20.342824 16.239006 20.404297 16.111328C20.434167 16.580585 20.444387 17.052318 20.583984 17.509766C20.682634 17.833044 20.82138 18.164424 21.103516 18.466797C21.385651 18.76917 21.861998 19 22.322266 19C22.780666 19 23.225414 18.798422 23.521484 18.542969C23.817554 18.287516 24.00749 17.997327 24.169922 17.705078C24.494786 17.12058 24.714941 16.488155 24.972656 15.904297C25.230371 15.320439 25.518702 14.802289 25.833984 14.482422C26.149267 14.162555 26.435375 14 27 14 A 1.0001 1.0001 0 1 0 27 12C25.926625 12 25.016983 12.462445 24.408203 13.080078C23.799423 13.697711 23.436613 14.429561 23.142578 15.095703C22.866085 15.722104 22.653325 16.273858 22.464844 16.634766C22.403464 16.320156 22.345457 15.942938 22.330078 15.466797C22.310838 14.871251 22.31862 14.25323 22.28125 13.712891C22.26256 13.442721 22.24433 13.198263 22.148438 12.904297C22.100492 12.757314 22.036733 12.587644 21.863281 12.392578C21.68983 12.197512 21.334692 12 21 12C20.641684 12 20.373123 12.159896 20.208984 12.294922C20.044846 12.429948 19.946351 12.559222 19.857422 12.6875C19.679564 12.944056 19.547914 13.211176 19.40625 13.511719C19.122921 14.112805 18.820897 14.841791 18.462891 15.546875C18.104884 16.251959 17.688823 16.922689 17.257812 17.363281C16.826804 17.803873 16.450294 18 16 18C15.668759 18 15.468964 17.894276 15.257812 17.730469C16.874051 15.684417 18 13.306302 18 11.140625C18 10.46175 17.896331 9.7527812 17.490234 9.1152344C17.084138 8.4776875 16.276401 8 15.390625 8C14.157838 8 13.162972 8.8716982 12.671875 9.9296875C12.180778 10.987677 12 12.286506 12 13.730469C12 14.847197 12.1522 16.256033 12.689453 17.517578C12.690753 17.520578 12.694012 17.522491 12.695312 17.525391C11.257785 18.94601 9.5866257 20 8 20C7.4042036 20 6.8626828 19.71375 6.3613281 19.25C6.8144357 18.642534 6.8519727 18.731785 7.3398438 17.974609C9.1421738 15.177393 11 11.473116 11 7.6777344C11 6.8335863 10.874906 5.7614416 10.292969 4.7832031C9.711031 3.8049646 8.5423438 3 7 3 z M 7 5C7.9466562 5 8.2784062 5.307426 8.5742188 5.8046875C8.8700311 6.301949 9 7.0678825 9 7.6777344C9 10.798352 7.3578262 14.255841 5.6601562 16.890625C5.4091639 17.280165 5.4053193 17.195462 5.1601562 17.544922C4.4345204 16.040083 4 14.008693 4 12.099609C4 9.8844951 4.3751461 7.982469 4.96875 6.7382812C5.5623539 5.4940935 6.2178008 5 7 5 z M 15.390625 10C15.708849 10 15.704831 10.03575 15.802734 10.189453C15.900638 10.343156 16 10.7045 16 11.140625C16 12.331643 15.289515 13.958377 14.3125 15.498047C14.191573 14.881216 14 14.266739 14 13.730469C14 12.470431 14.193426 11.402495 14.486328 10.771484C14.779231 10.140474 14.979412 10 15.390625 10 z M 3 25 A 1.0001 1.0001 0 1 0 3 27L27 27 A 1.0001 1.0001 0 1 0 27 25L3 25 z"/>
</svg>