<svg width="360" height="237" viewBox="0 0 360 237" fill="none" xmlns="http://www.w3.org/2000/svg">
<rect width="360" height="237" fill="#EBEFF2"/>
<path d="M23.9287 40H22.2031V28.561L18.7427 29.832V28.2734L23.6597 26.4272H23.9287V40Z" fill="#354044"/>
<path d="M17.9819 76.8975C17.9819 75.3203 18.3438 74.0741 19.0674 73.1587C19.791 72.2371 20.762 71.7764 21.9805 71.7764C23.168 71.7764 24.105 72.1753 24.7915 72.9731L24.8657 71.9619H26.4429V85.8594H24.7266V81.0723C24.0339 81.8145 23.1123 82.1855 21.9619 82.1855C20.7497 82.1855 19.7817 81.7155 19.0581 80.7754C18.3407 79.8291 17.9819 78.5767 17.9819 77.0181V76.8975ZM19.6982 77.0923C19.6982 78.2427 19.9395 79.1457 20.4219 79.8013C20.9105 80.4569 21.5661 80.7847 22.3887 80.7847C23.4092 80.7847 24.1885 80.3332 24.7266 79.4302V74.5132C24.1823 73.6287 23.4092 73.1865 22.4072 73.1865C21.5785 73.1865 20.9198 73.5174 20.4312 74.1792C19.9425 74.8348 19.6982 75.8058 19.6982 77.0923Z" fill="#354044"/>
<path d="M41.8286 125C41.7297 124.802 41.6493 124.45 41.5874 123.942C40.7896 124.771 39.8371 125.186 38.73 125.186C37.7404 125.186 36.9271 124.907 36.29 124.351C35.6592 123.788 35.3438 123.076 35.3438 122.217C35.3438 121.172 35.7396 120.361 36.5312 119.786C37.3291 119.205 38.4486 118.914 39.8896 118.914H41.5596V118.125C41.5596 117.526 41.3802 117.049 41.0215 116.697C40.6628 116.338 40.134 116.159 39.4351 116.159C38.8228 116.159 38.3094 116.313 37.895 116.623C37.4806 116.932 37.2734 117.306 37.2734 117.745H35.5479C35.5479 117.244 35.7241 116.762 36.0767 116.298C36.4354 115.828 36.9178 115.457 37.5239 115.185C38.1362 114.912 38.8073 114.776 39.5371 114.776C40.6937 114.776 41.5998 115.067 42.2554 115.648C42.911 116.224 43.2511 117.018 43.2759 118.033V122.653C43.2759 123.574 43.3934 124.307 43.6284 124.852V125H41.8286ZM38.9805 123.692C39.5186 123.692 40.0288 123.553 40.5112 123.274C40.9937 122.996 41.3431 122.634 41.5596 122.189V120.129H40.2144C38.1115 120.129 37.0601 120.745 37.0601 121.976C37.0601 122.514 37.2394 122.934 37.5981 123.237C37.9569 123.54 38.4176 123.692 38.9805 123.692Z" fill="#354044"/>
<path d="M73.7002 166.599H79.5728V168H71.6035V166.738L77.1421 159.381H71.687V157.962H79.2944V159.177L73.7002 166.599Z" fill="#354044"/>
<path d="M62.1387 40H53.2881V38.7661L57.9639 33.5708C58.6566 32.7853 59.1328 32.1483 59.3926 31.6597C59.6585 31.1649 59.7915 30.6546 59.7915 30.1289C59.7915 29.4238 59.5781 28.8455 59.1514 28.394C58.7246 27.9425 58.1556 27.7168 57.4443 27.7168C56.5908 27.7168 55.9259 27.9611 55.4497 28.4497C54.9797 28.9321 54.7446 29.6063 54.7446 30.4722H53.0283C53.0283 29.229 53.4272 28.224 54.2251 27.457C55.0291 26.6901 56.1022 26.3066 57.4443 26.3066C58.6999 26.3066 59.6925 26.6375 60.4224 27.2993C61.1522 27.9549 61.5171 28.8301 61.5171 29.9248C61.5171 31.2546 60.6698 32.8379 58.9751 34.6748L55.3569 38.5991H62.1387V40Z" fill="#354044"/>
<path d="M60.543 79.6343L62.4727 71.9619H64.189L61.2666 82H59.875L57.4351 74.3926L55.0601 82H53.6685L50.7554 71.9619H52.4624L54.4385 79.4766L56.7764 71.9619H58.1587L60.543 79.6343Z" fill="#354044"/>
<path d="M76.7451 122.337C76.7451 121.874 76.5688 121.515 76.2163 121.261C75.87 121.001 75.2607 120.779 74.3887 120.593C73.5228 120.408 72.8332 120.185 72.3198 119.925C71.8127 119.666 71.4354 119.356 71.188 118.998C70.9468 118.639 70.8262 118.212 70.8262 117.717C70.8262 116.895 71.1725 116.199 71.8652 115.63C72.5641 115.061 73.4548 114.776 74.5371 114.776C75.6751 114.776 76.5967 115.07 77.3018 115.658C78.013 116.245 78.3687 116.997 78.3687 117.912H76.6431C76.6431 117.442 76.4421 117.037 76.04 116.697C75.6442 116.357 75.1432 116.187 74.5371 116.187C73.9124 116.187 73.4238 116.323 73.0713 116.595C72.7188 116.867 72.5425 117.222 72.5425 117.662C72.5425 118.076 72.7064 118.388 73.0342 118.599C73.362 118.809 73.9526 119.01 74.8062 119.202C75.6659 119.393 76.3617 119.622 76.8936 119.888C77.4255 120.154 77.8182 120.476 78.0718 120.853C78.3315 121.224 78.4614 121.679 78.4614 122.217C78.4614 123.114 78.1027 123.834 77.3853 124.378C76.6678 124.917 75.737 125.186 74.5928 125.186C73.7887 125.186 73.0775 125.043 72.459 124.759C71.8405 124.474 71.355 124.078 71.0024 123.571C70.6561 123.058 70.4829 122.504 70.4829 121.911H72.1992C72.2301 122.486 72.459 122.944 72.8857 123.284C73.3187 123.618 73.8877 123.785 74.5928 123.785C75.2422 123.785 75.7617 123.655 76.1514 123.395C76.5472 123.129 76.7451 122.777 76.7451 122.337Z" fill="#354044"/>
<path d="M110.454 161.626L112.68 157.962H114.684L111.4 162.925L114.786 168H112.801L110.481 164.243L108.162 168H106.167L109.554 162.925L106.27 157.962H108.255L110.454 161.626Z" fill="#354044"/>
<path d="M90.7837 32.4111H92.0732C92.8835 32.3988 93.5205 32.1854 93.9844 31.771C94.4482 31.3566 94.6802 30.7969 94.6802 30.0918C94.6802 28.5085 93.8916 27.7168 92.3145 27.7168C91.5723 27.7168 90.9785 27.9302 90.5332 28.3569C90.0941 28.7775 89.8745 29.3372 89.8745 30.0361H88.1582C88.1582 28.9661 88.5479 28.0786 89.3271 27.3735C90.1126 26.6623 91.1084 26.3066 92.3145 26.3066C93.5885 26.3066 94.5874 26.6437 95.311 27.3179C96.0347 27.992 96.3965 28.929 96.3965 30.1289C96.3965 30.7165 96.2048 31.2855 95.8213 31.8359C95.444 32.3864 94.9276 32.7977 94.272 33.0698C95.0142 33.3049 95.5863 33.6945 95.9883 34.2388C96.3965 34.783 96.6006 35.4479 96.6006 36.2334C96.6006 37.4456 96.2048 38.4074 95.4131 39.1187C94.6214 39.8299 93.5916 40.1855 92.3237 40.1855C91.0558 40.1855 90.0229 39.8423 89.2251 39.1558C88.4334 38.4692 88.0376 37.5632 88.0376 36.4375H89.7632C89.7632 37.1488 89.9951 37.7178 90.459 38.1445C90.9229 38.5713 91.5444 38.7847 92.3237 38.7847C93.1525 38.7847 93.7865 38.5682 94.2256 38.1353C94.6647 37.7023 94.8843 37.0807 94.8843 36.2705C94.8843 35.485 94.6431 34.882 94.1606 34.4614C93.6782 34.0409 92.9824 33.8244 92.0732 33.812H90.7837V32.4111Z" fill="#354044"/>
<path d="M92.9268 82.1855C91.5661 82.1855 90.459 81.7402 89.6055 80.8496C88.752 79.9528 88.3252 78.756 88.3252 77.2593V76.9438C88.3252 75.9481 88.5138 75.0605 88.8911 74.2812C89.2746 73.4958 89.8065 72.8835 90.4868 72.4443C91.1733 71.999 91.9155 71.7764 92.7134 71.7764C94.0184 71.7764 95.0327 72.2062 95.7563 73.0659C96.48 73.9256 96.8418 75.1564 96.8418 76.7583V77.4727H90.0415C90.0662 78.4622 90.3538 79.2632 90.9043 79.8755C91.4609 80.4816 92.166 80.7847 93.0195 80.7847C93.6257 80.7847 94.139 80.661 94.5596 80.4136C94.9801 80.1662 95.3481 79.8384 95.6636 79.4302L96.7119 80.2466C95.8708 81.5392 94.609 82.1855 92.9268 82.1855ZM92.7134 73.1865C92.0207 73.1865 91.4393 73.4401 90.9692 73.9473C90.4992 74.4482 90.2085 75.1533 90.0972 76.0625H95.1255V75.9326C95.076 75.0605 94.841 74.3864 94.4204 73.9102C93.9998 73.4277 93.4308 73.1865 92.7134 73.1865Z" fill="#354044"/>
<path d="M105.019 119.897C105.019 118.357 105.384 117.12 106.114 116.187C106.844 115.246 107.799 114.776 108.98 114.776C110.156 114.776 111.086 115.178 111.773 115.982V110.75H113.489V125H111.912L111.829 123.924C111.142 124.765 110.187 125.186 108.962 125.186C107.799 125.186 106.85 124.709 106.114 123.757C105.384 122.804 105.019 121.561 105.019 120.027V119.897ZM106.735 120.092C106.735 121.23 106.97 122.121 107.44 122.764C107.91 123.407 108.56 123.729 109.389 123.729C110.477 123.729 111.272 123.24 111.773 122.263V117.652C111.26 116.706 110.471 116.233 109.407 116.233C108.566 116.233 107.91 116.558 107.44 117.207C106.97 117.856 106.735 118.818 106.735 120.092Z" fill="#354044"/>
<path d="M145.853 166.785C146.465 166.785 147 166.599 147.458 166.228C147.915 165.857 148.169 165.393 148.218 164.836H149.842C149.811 165.412 149.613 165.959 149.248 166.479C148.883 166.998 148.395 167.412 147.782 167.722C147.176 168.031 146.533 168.186 145.853 168.186C144.486 168.186 143.397 167.731 142.587 166.822C141.783 165.906 141.381 164.657 141.381 163.074V162.786C141.381 161.809 141.56 160.94 141.919 160.179C142.278 159.418 142.791 158.828 143.459 158.407C144.133 157.987 144.928 157.776 145.843 157.776C146.969 157.776 147.903 158.113 148.645 158.788C149.393 159.462 149.792 160.337 149.842 161.413H148.218C148.169 160.764 147.921 160.232 147.476 159.817C147.037 159.397 146.493 159.187 145.843 159.187C144.971 159.187 144.294 159.502 143.812 160.133C143.335 160.757 143.097 161.664 143.097 162.851V163.176C143.097 164.332 143.335 165.223 143.812 165.848C144.288 166.472 144.968 166.785 145.853 166.785Z" fill="#354044"/>
<path d="M130.534 35.4634H132.408V36.8643H130.534V40H128.808V36.8643H122.657V35.853L128.706 26.4922H130.534V35.4634ZM124.605 35.4634H128.808V28.8394L128.604 29.2104L124.605 35.4634Z" fill="#354044"/>
<path d="M130.432 73.502C130.172 73.4587 129.89 73.437 129.587 73.437C128.462 73.437 127.698 73.9163 127.296 74.875V82H125.58V71.9619H127.25L127.277 73.1216C127.84 72.2248 128.638 71.7764 129.671 71.7764C130.005 71.7764 130.258 71.8197 130.432 71.9062V73.502Z" fill="#354044"/>
<path d="M143.34 125V116.289H141.754V114.962H143.34V113.932C143.34 112.856 143.628 112.024 144.203 111.437C144.778 110.849 145.592 110.555 146.643 110.555C147.039 110.555 147.432 110.608 147.821 110.713L147.729 112.104C147.438 112.049 147.129 112.021 146.801 112.021C146.244 112.021 145.814 112.185 145.511 112.513C145.208 112.834 145.057 113.298 145.057 113.904V114.962H147.2V116.289H145.057V125H143.34Z" fill="#354044"/>
<path d="M180.509 165.671L182.996 157.962H184.749L181.149 168H179.841L176.205 157.962H177.958L180.509 165.671Z" fill="#354044"/>
<path d="M159.077 33.2275L159.763 26.4922H166.684V28.0786H161.22L160.812 31.7617C161.473 31.3721 162.225 31.1772 163.066 31.1772C164.297 31.1772 165.274 31.5854 165.998 32.4019C166.721 33.2121 167.083 34.3099 167.083 35.6953C167.083 37.0869 166.706 38.1847 165.951 38.9888C165.203 39.7866 164.154 40.1855 162.806 40.1855C161.612 40.1855 160.638 39.8547 159.884 39.1929C159.129 38.5311 158.699 37.6157 158.594 36.4468H160.218C160.323 37.2199 160.598 37.8044 161.043 38.2002C161.489 38.5898 162.076 38.7847 162.806 38.7847C163.604 38.7847 164.229 38.5125 164.68 37.9683C165.138 37.424 165.367 36.6725 165.367 35.7139C165.367 34.8109 165.119 34.0872 164.625 33.543C164.136 32.9925 163.483 32.7173 162.667 32.7173C161.919 32.7173 161.331 32.8812 160.904 33.209L160.45 33.5801L159.077 33.2275Z" fill="#354044"/>
<path d="M163.02 69.5312V71.9619H164.894V73.2886H163.02V79.5137C163.02 79.9157 163.103 80.2188 163.27 80.4229C163.437 80.6208 163.722 80.7197 164.124 80.7197C164.321 80.7197 164.594 80.6826 164.94 80.6084V82C164.488 82.1237 164.049 82.1855 163.623 82.1855C162.856 82.1855 162.277 81.9536 161.888 81.4897C161.498 81.0259 161.303 80.3672 161.303 79.5137V73.2886H159.476V71.9619H161.303V69.5312H163.02Z" fill="#354044"/>
<path d="M175.056 119.897C175.056 118.333 175.418 117.09 176.142 116.168C176.865 115.24 177.824 114.776 179.018 114.776C180.242 114.776 181.198 115.209 181.884 116.075L181.968 114.962H183.536V124.759C183.536 126.058 183.149 127.081 182.376 127.83C181.609 128.578 180.576 128.952 179.277 128.952C178.554 128.952 177.846 128.798 177.153 128.488C176.46 128.179 175.931 127.755 175.566 127.217L176.457 126.188C177.193 127.097 178.093 127.551 179.157 127.551C179.992 127.551 180.641 127.316 181.105 126.846C181.575 126.376 181.81 125.714 181.81 124.861V123.998C181.124 124.79 180.187 125.186 178.999 125.186C177.824 125.186 176.871 124.712 176.142 123.766C175.418 122.82 175.056 121.53 175.056 119.897ZM176.782 120.092C176.782 121.224 177.014 122.115 177.478 122.764C177.941 123.407 178.591 123.729 179.426 123.729C180.508 123.729 181.303 123.237 181.81 122.254V117.671C181.284 116.712 180.496 116.233 179.444 116.233C178.609 116.233 177.957 116.558 177.487 117.207C177.017 117.856 176.782 118.818 176.782 120.092Z" fill="#354044"/>
<path d="M219.962 163.092C219.962 164.626 219.61 165.86 218.905 166.794C218.2 167.722 217.253 168.186 216.066 168.186C214.798 168.186 213.818 167.737 213.125 166.84L213.042 168H211.464V153.75H213.181V159.066C213.873 158.206 214.829 157.776 216.047 157.776C217.266 157.776 218.221 158.237 218.914 159.159C219.613 160.08 219.962 161.342 219.962 162.944V163.092ZM218.246 162.897C218.246 161.729 218.02 160.826 217.569 160.188C217.117 159.551 216.468 159.233 215.621 159.233C214.489 159.233 213.675 159.759 213.181 160.81V165.152C213.706 166.203 214.526 166.729 215.639 166.729C216.462 166.729 217.102 166.41 217.56 165.773C218.017 165.136 218.246 164.178 218.246 162.897Z" fill="#354044"/>
<path d="M200.023 26.4829V27.9395H199.708C198.372 27.9642 197.308 28.36 196.517 29.127C195.725 29.8939 195.267 30.9731 195.144 32.3647C195.855 31.5483 196.826 31.1401 198.057 31.1401C199.232 31.1401 200.169 31.5545 200.868 32.3833C201.573 33.2121 201.925 34.2821 201.925 35.5933C201.925 36.9849 201.545 38.0981 200.784 38.9331C200.03 39.7681 199.015 40.1855 197.741 40.1855C196.449 40.1855 195.4 39.6908 194.596 38.7012C193.792 37.7054 193.39 36.4251 193.39 34.8604V34.2017C193.39 31.7153 193.919 29.8166 194.977 28.5054C196.04 27.188 197.621 26.5138 199.717 26.4829H200.023ZM197.769 32.5688C197.181 32.5688 196.64 32.7451 196.146 33.0977C195.651 33.4502 195.307 33.8924 195.116 34.4243V35.0552C195.116 36.1685 195.366 37.0653 195.867 37.7456C196.368 38.4259 196.993 38.7661 197.741 38.7661C198.514 38.7661 199.12 38.4816 199.56 37.9126C200.005 37.3436 200.228 36.5983 200.228 35.6768C200.228 34.749 200.002 34.0007 199.55 33.4316C199.105 32.8564 198.511 32.5688 197.769 32.5688Z" fill="#354044"/>
<path d="M197.583 79.4858L199.921 71.9619H201.758L197.723 83.5493C197.098 85.2192 196.105 86.0542 194.745 86.0542L194.42 86.0264L193.78 85.9058V84.5142L194.244 84.5513C194.825 84.5513 195.277 84.4338 195.598 84.1987C195.926 83.9637 196.195 83.5339 196.405 82.9092L196.786 81.8887L193.205 71.9619H195.079L197.583 79.4858Z" fill="#354044"/>
<path d="M212.283 116.177C213.043 115.243 214.033 114.776 215.251 114.776C217.373 114.776 218.443 115.973 218.461 118.367V125H216.745V118.357C216.739 117.634 216.572 117.099 216.244 116.752C215.923 116.406 215.418 116.233 214.732 116.233C214.175 116.233 213.687 116.381 213.266 116.678C212.846 116.975 212.518 117.365 212.283 117.847V125H210.566V110.75H212.283V116.177Z" fill="#354044"/>
<path d="M248.181 157.962L248.236 159.224C249.003 158.259 250.005 157.776 251.242 157.776C253.364 157.776 254.434 158.973 254.452 161.367V168H252.736V161.357C252.73 160.634 252.563 160.099 252.235 159.752C251.913 159.406 251.409 159.233 250.723 159.233C250.166 159.233 249.677 159.381 249.257 159.678C248.836 159.975 248.508 160.365 248.273 160.847V168H246.557V157.962H248.181Z" fill="#354044"/>
<path d="M237.009 27.457L231.415 40H229.615L235.19 27.9023H227.88V26.4922H237.009V27.457Z" fill="#354044"/>
<path d="M234.754 81.0073C234.086 81.7928 233.106 82.1855 231.813 82.1855C230.743 82.1855 229.927 81.8763 229.364 81.2578C228.808 80.6331 228.526 79.7116 228.52 78.4932V71.9619H230.236V78.4468C230.236 79.9683 230.855 80.729 232.092 80.729C233.403 80.729 234.275 80.2404 234.708 79.2632V71.9619H236.424V82H234.792L234.754 81.0073Z" fill="#354044"/>
<path d="M250.298 114.962V126.16C250.298 128.089 249.423 129.054 247.672 129.054C247.295 129.054 246.946 128.999 246.624 128.887V127.514C246.822 127.564 247.082 127.588 247.403 127.588C247.787 127.588 248.077 127.483 248.275 127.273C248.479 127.069 248.582 126.71 248.582 126.197V114.962H250.298ZM248.405 112.299C248.405 112.027 248.489 111.795 248.656 111.604C248.829 111.406 249.079 111.307 249.407 111.307C249.741 111.307 249.995 111.403 250.168 111.594C250.341 111.786 250.428 112.021 250.428 112.299C250.428 112.578 250.341 112.81 250.168 112.995C249.995 113.181 249.741 113.273 249.407 113.273C249.073 113.273 248.823 113.181 248.656 112.995C248.489 112.81 248.405 112.578 248.405 112.299Z" fill="#354044"/>
<path d="M280.082 157.962L280.128 159.075C280.864 158.209 281.857 157.776 283.106 157.776C284.51 157.776 285.466 158.314 285.973 159.391C286.307 158.908 286.74 158.519 287.272 158.222C287.81 157.925 288.444 157.776 289.174 157.776C291.376 157.776 292.495 158.942 292.532 161.274V168H290.816V161.376C290.816 160.659 290.652 160.124 290.324 159.771C289.996 159.412 289.446 159.233 288.673 159.233C288.036 159.233 287.507 159.425 287.086 159.808C286.666 160.185 286.422 160.696 286.354 161.339V168H284.628V161.422C284.628 159.963 283.914 159.233 282.485 159.233C281.359 159.233 280.589 159.712 280.175 160.671V168H278.458V157.962H280.082Z" fill="#354044"/>
<path d="M271.48 30.0176C271.48 30.6917 271.301 31.2917 270.942 31.8174C270.589 32.3431 270.11 32.7544 269.504 33.0513C270.209 33.3543 270.766 33.7965 271.174 34.3779C271.588 34.9593 271.795 35.618 271.795 36.354C271.795 37.5229 271.4 38.4538 270.608 39.1465C269.822 39.8392 268.786 40.1855 267.5 40.1855C266.201 40.1855 265.159 39.8392 264.374 39.1465C263.594 38.4476 263.205 37.5168 263.205 36.354C263.205 35.6242 263.403 34.9655 263.798 34.3779C264.2 33.7904 264.754 33.3451 265.459 33.042C264.859 32.7451 264.386 32.3338 264.04 31.8081C263.693 31.2824 263.52 30.6855 263.52 30.0176C263.52 28.8796 263.885 27.9766 264.615 27.3086C265.345 26.6406 266.306 26.3066 267.5 26.3066C268.688 26.3066 269.646 26.6406 270.376 27.3086C271.112 27.9766 271.48 28.8796 271.48 30.0176ZM270.079 36.3169C270.079 35.5623 269.838 34.9469 269.355 34.4707C268.879 33.9945 268.255 33.7563 267.481 33.7563C266.708 33.7563 266.087 33.9914 265.617 34.4614C265.153 34.9315 264.921 35.55 264.921 36.3169C264.921 37.0838 265.147 37.6868 265.598 38.126C266.056 38.5651 266.69 38.7847 267.5 38.7847C268.304 38.7847 268.935 38.5651 269.393 38.126C269.85 37.6807 270.079 37.0776 270.079 36.3169ZM267.5 27.7168C266.826 27.7168 266.278 27.9271 265.858 28.3477C265.444 28.762 265.236 29.328 265.236 30.0454C265.236 30.7319 265.44 31.2886 265.849 31.7153C266.263 32.1359 266.813 32.3462 267.5 32.3462C268.187 32.3462 268.734 32.1359 269.142 31.7153C269.556 31.2886 269.764 30.7319 269.764 30.0454C269.764 29.3589 269.55 28.7992 269.124 28.3662C268.697 27.9333 268.156 27.7168 267.5 27.7168Z" fill="#354044"/>
<path d="M268.354 82H266.637V71.9619H268.354V82ZM266.498 69.2993C266.498 69.021 266.582 68.786 266.749 68.5942C266.922 68.4025 267.175 68.3066 267.509 68.3066C267.843 68.3066 268.097 68.4025 268.27 68.5942C268.443 68.786 268.53 69.021 268.53 69.2993C268.53 69.5776 268.443 69.8096 268.27 69.9951C268.097 70.1807 267.843 70.2734 267.509 70.2734C267.175 70.2734 266.922 70.1807 266.749 69.9951C266.582 69.8096 266.498 69.5776 266.498 69.2993Z" fill="#354044"/>
<path d="M283.786 120.352L282.709 121.475V125H280.993V110.75H282.709V119.369L283.628 118.265L286.754 114.962H288.842L284.936 119.155L289.296 125H287.283L283.786 120.352Z" fill="#354044"/>
<path d="M304.866 34.0625C304.507 34.4893 304.077 34.8325 303.576 35.0923C303.081 35.3521 302.537 35.4819 301.943 35.4819C301.164 35.4819 300.484 35.2902 299.902 34.9067C299.327 34.5233 298.882 33.9852 298.566 33.2925C298.251 32.5936 298.093 31.8236 298.093 30.9824C298.093 30.0794 298.263 29.2661 298.604 28.5425C298.95 27.8188 299.438 27.2653 300.069 26.8818C300.7 26.4984 301.436 26.3066 302.277 26.3066C303.613 26.3066 304.665 26.8076 305.432 27.8096C306.205 28.8053 306.591 30.166 306.591 31.8916V32.3926C306.591 35.0212 306.072 36.9416 305.033 38.1538C303.994 39.3599 302.426 39.9784 300.329 40.0093H299.995V38.562H300.357C301.773 38.5373 302.862 38.1693 303.623 37.458C304.383 36.7406 304.798 35.6087 304.866 34.0625ZM302.222 34.0625C302.797 34.0625 303.326 33.8862 303.808 33.5337C304.297 33.1812 304.652 32.7451 304.875 32.2256V31.5391C304.875 30.4134 304.631 29.498 304.142 28.793C303.653 28.0879 303.035 27.7354 302.287 27.7354C301.532 27.7354 300.926 28.026 300.468 28.6074C300.011 29.1826 299.782 29.9434 299.782 30.8896C299.782 31.8112 300.001 32.5719 300.44 33.1719C300.886 33.7656 301.479 34.0625 302.222 34.0625Z" fill="#354044"/>
<path d="M297.926 76.8882C297.926 75.9048 298.118 75.0203 298.501 74.2349C298.891 73.4494 299.429 72.8433 300.116 72.4165C300.808 71.9897 301.597 71.7764 302.481 71.7764C303.848 71.7764 304.952 72.2495 305.793 73.1958C306.641 74.1421 307.064 75.4007 307.064 76.9717V77.0923C307.064 78.0695 306.876 78.9478 306.499 79.7271C306.127 80.5002 305.592 81.1032 304.894 81.5361C304.201 81.9691 303.403 82.1855 302.5 82.1855C301.139 82.1855 300.035 81.7124 299.188 80.7661C298.347 79.8198 297.926 78.5674 297.926 77.0088V76.8882ZM299.652 77.0923C299.652 78.2056 299.909 79.0993 300.422 79.7734C300.941 80.4476 301.634 80.7847 302.5 80.7847C303.372 80.7847 304.065 80.4445 304.578 79.7642C305.091 79.0776 305.348 78.119 305.348 76.8882C305.348 75.7873 305.085 74.8966 304.56 74.2163C304.04 73.5298 303.347 73.1865 302.481 73.1865C301.634 73.1865 300.951 73.5236 300.431 74.1978C299.912 74.8719 299.652 75.8368 299.652 77.0923Z" fill="#354044"/>
<path d="M320.354 125H318.637V110.75H320.354V125Z" fill="#354044"/>
<path d="M341.758 34.2388C341.758 36.2489 341.415 37.7425 340.729 38.7197C340.042 39.6969 338.969 40.1855 337.509 40.1855C336.068 40.1855 335.001 39.7093 334.309 38.7568C333.616 37.7982 333.257 36.3695 333.232 34.4707V32.1792C333.232 30.1938 333.576 28.7188 334.262 27.7539C334.949 26.7891 336.025 26.3066 337.491 26.3066C338.944 26.3066 340.014 26.7736 340.701 27.7075C341.387 28.6353 341.74 30.0701 341.758 32.0122V34.2388ZM340.042 31.8916C340.042 30.4382 339.838 29.3805 339.43 28.7188C339.021 28.0508 338.375 27.7168 337.491 27.7168C336.612 27.7168 335.972 28.0477 335.57 28.7095C335.168 29.3713 334.961 30.3887 334.949 31.7617V34.5078C334.949 35.9674 335.159 37.0467 335.58 37.7456C336.006 38.4383 336.65 38.7847 337.509 38.7847C338.357 38.7847 338.984 38.4569 339.393 37.8013C339.807 37.1457 340.023 36.1128 340.042 34.7026V31.8916Z" fill="#354044"/>
<path d="M341.944 77.0923C341.944 78.62 341.594 79.8507 340.896 80.7847C340.197 81.7186 339.25 82.1855 338.057 82.1855C336.838 82.1855 335.88 81.799 335.181 81.0259V85.8594H333.464V71.9619H335.032L335.116 73.0752C335.815 72.2093 336.786 71.7764 338.029 71.7764C339.235 71.7764 340.187 72.231 340.886 73.1401C341.591 74.0493 341.944 75.3141 341.944 76.9346V77.0923ZM340.228 76.8975C340.228 75.7656 339.986 74.8719 339.504 74.2163C339.021 73.5607 338.36 73.2329 337.519 73.2329C336.479 73.2329 335.7 73.6937 335.181 74.6152V79.4116C335.694 80.327 336.479 80.7847 337.537 80.7847C338.36 80.7847 339.012 80.46 339.495 79.8105C339.983 79.1549 340.228 78.1839 340.228 76.8975Z" fill="#354044"/>
<path fill-rule="evenodd" clip-rule="evenodd" d="M33 155L41.6602 164H36V169H30V164H24.3397L33 155ZM36 176.5V175H30V176.5H36Z" fill="#7F8A8E"/>
<rect x="320" y="155" width="14" height="13" fill="#7F8A8E"/>
<path d="M314 161.5L320 155.005V167.995L314 161.5Z" fill="#7F8A8E"/>
<line x1="323.53" y1="158.47" x2="329.53" y2="164.47" stroke="#EBEFF2" stroke-width="1.5"/>
<line y1="-0.75" x2="8.48528" y2="-0.75" transform="matrix(-0.707107 0.707107 0.707107 0.707107 330 159)" stroke="#EBEFF2" stroke-width="1.5"/>
<rect x="129" y="188" width="129" height="34" rx="3" fill="#C8CDD1"/>
<path d="M280.831 214.1C280.831 213.803 280.918 213.556 281.091 213.358C281.27 213.16 281.536 213.061 281.889 213.061C282.241 213.061 282.507 213.16 282.687 213.358C282.872 213.556 282.965 213.803 282.965 214.1C282.965 214.385 282.872 214.623 282.687 214.814C282.507 215.006 282.241 215.102 281.889 215.102C281.536 215.102 281.27 215.006 281.091 214.814C280.918 214.623 280.831 214.385 280.831 214.1Z" fill="#354044"/>
<path d="M68.3784 217.69L67.4043 217.022C67.9857 216.212 68.2887 215.377 68.3135 214.518V212.968H69.9927V214.313C69.9927 214.938 69.8381 215.563 69.5288 216.188C69.2257 216.812 68.8423 217.313 68.3784 217.69Z" fill="#354044"/>
<path d="M19.4775 206.283C19.4775 205.72 19.5474 205.272 19.687 204.938C19.8267 204.603 20.1017 204.237 20.5122 203.839C20.9269 203.437 21.1893 203.152 21.2993 202.982C21.4686 202.724 21.5532 202.445 21.5532 202.145C21.5532 201.747 21.4538 201.444 21.2549 201.237C21.0602 201.025 20.7725 200.919 20.3916 200.919C20.0277 200.919 19.7336 201.023 19.5093 201.23C19.2892 201.434 19.1792 201.711 19.1792 202.062H17.6367C17.6452 201.313 17.8991 200.721 18.3984 200.285C18.902 199.849 19.5664 199.631 20.3916 199.631C21.2422 199.631 21.9045 199.847 22.3784 200.278C22.8566 200.71 23.0957 201.313 23.0957 202.087C23.0957 202.777 22.7741 203.456 22.1309 204.125L21.3501 204.893C21.0708 205.21 20.9269 205.674 20.9185 206.283H19.4775ZM19.3696 208.257C19.3696 208.008 19.4479 207.807 19.6045 207.654C19.7611 207.498 19.9727 207.419 20.2393 207.419C20.5101 207.419 20.7238 207.5 20.8804 207.661C21.0369 207.817 21.1152 208.016 21.1152 208.257C21.1152 208.49 21.0391 208.685 20.8867 208.841C20.7344 208.998 20.5186 209.076 20.2393 209.076C19.96 209.076 19.7441 208.998 19.5918 208.841C19.4437 208.685 19.3696 208.49 19.3696 208.257ZM28.4468 209H26.9106V201.58L24.6445 202.354V201.053L28.25 199.726H28.4468V209ZM37.873 209H31.6587V207.94L34.7373 204.582C35.1816 204.087 35.4969 203.674 35.6831 203.344C35.8735 203.01 35.9688 202.676 35.9688 202.341C35.9688 201.901 35.8439 201.546 35.5942 201.275C35.3488 201.004 35.0166 200.869 34.5977 200.869C34.0983 200.869 33.7111 201.021 33.436 201.326C33.161 201.63 33.0234 202.047 33.0234 202.576H31.481C31.481 202.013 31.6079 201.508 31.8618 201.059C32.12 200.606 32.486 200.255 32.96 200.005C33.4382 199.756 33.9883 199.631 34.6104 199.631C35.5075 199.631 36.2142 199.857 36.7305 200.31C37.251 200.759 37.5112 201.381 37.5112 202.176C37.5112 202.638 37.38 203.122 37.1177 203.63C36.8595 204.133 36.4342 204.707 35.8418 205.35L33.582 207.769H37.873V209ZM40.8311 203.674H41.7705C42.2445 203.67 42.619 203.547 42.894 203.306C43.1733 203.065 43.313 202.716 43.313 202.259C43.313 201.819 43.1966 201.478 42.9639 201.237C42.7354 200.991 42.3841 200.869 41.9102 200.869C41.4954 200.869 41.1548 200.989 40.8882 201.23C40.6216 201.467 40.4883 201.778 40.4883 202.164H38.9458C38.9458 201.69 39.0706 201.258 39.3203 200.869C39.5742 200.479 39.9255 200.177 40.374 199.961C40.8268 199.741 41.3325 199.631 41.8911 199.631C42.8136 199.631 43.5373 199.864 44.062 200.329C44.591 200.79 44.8555 201.434 44.8555 202.259C44.8555 202.674 44.7222 203.065 44.4556 203.433C44.1932 203.797 43.8525 204.072 43.4336 204.258C43.9414 204.432 44.3265 204.705 44.5889 205.077C44.8555 205.45 44.9888 205.894 44.9888 206.41C44.9888 207.24 44.7031 207.9 44.1318 208.391C43.5648 208.882 42.8179 209.127 41.8911 209.127C41.0024 209.127 40.2746 208.89 39.7075 208.416C39.1405 207.942 38.8569 207.312 38.8569 206.524H40.3994C40.3994 206.931 40.5348 207.261 40.8057 207.515C41.0807 207.769 41.4489 207.896 41.9102 207.896C42.3883 207.896 42.765 207.769 43.04 207.515C43.3151 207.261 43.4526 206.893 43.4526 206.41C43.4526 205.924 43.3088 205.549 43.021 205.287C42.7332 205.024 42.3058 204.893 41.7388 204.893H40.8311V203.674Z" fill="#7F8A8E"/>
<circle cx="105.5" cy="204.5" r="6.75" stroke="#7F8A8E" stroke-width="1.5"/>
<circle cx="103" cy="203" r="1" fill="#7F8A8E"/>
<circle cx="108" cy="203" r="1" fill="#7F8A8E"/>
<path d="M102 206C102 206 103.167 208 105.5 208C107.833 208 109 206 109 206" stroke="#7F8A8E"/>
<circle cx="325.5" cy="207.5" r="12.5" fill="#4FB6B2"/>
<path d="M331.5 205.5V208.5H320" stroke="#EBEFF2" stroke-width="1.5"/>
<path d="M322.5 205L320 208.5L323 212" stroke="#EBEFF2" stroke-width="1.5"/>
</svg>
